<svg xmlns="http://www.w3.org/2000/svg" width="20.778" height="17" viewBox="0 0 20.778 17">
  <path id="home_work_FILL0_wght400_GRAD0_opsz48" d="M55.513-834.876h1.417v-1.417H55.513Zm0,4.038h1.417v-1.417H55.513Zm0,4.014h1.417v-1.417H55.513ZM54.19-823v-1.417h5.171v-14.167H50.035v2.644l-1.417-.992V-840h12.16v17ZM40-823v-9.208l6.4-4.581,6.375,4.581V-823H47.65v-4.746h-2.5V-823Zm1.417-1.417h2.314v-4.746h5.336v4.746h2.29v-7.06L46.4-835.042l-4.982,3.575ZM54.19-833.035Zm-5.124,8.618v-4.746H43.731v0h5.336Z" transform="translate(-40 840)" fill="#979797"/>
</svg>
