<svg id="Group_296" data-name="Group 296" xmlns="http://www.w3.org/2000/svg" xmlns:xlink="http://www.w3.org/1999/xlink" width="219.233" height="159.129" viewBox="0 0 219.233 159.129">
  <defs>
    <clipPath id="clip-path">
      <path id="Path_205" data-name="Path 205" d="M717.568,429.152V412.581c2.237-.518,4.326-.6,6.25.833,3.04,2.269,3.9,5.394,3.339,8.94a8.185,8.185,0,0,1-5.688,6.768,5.76,5.76,0,0,1-3.9.03m-4.837-19.327a2.557,2.557,0,0,0-.072.446q0,22.508.01,45.016c0,.028.045.062.076.084a1.272,1.272,0,0,0,.159.076c1.024-.856,2.021-1.787,3.118-2.577a2.777,2.777,0,0,0,1.221-2.585c-.06-5.058-.013-10.117,0-15.176,0-.4.066-.8.1-1.2l.281-.107c.309.368.647.716.923,1.108q5.426,7.72,10.837,15.451a9.061,9.061,0,0,0,.748,1.029,36.883,36.883,0,0,0,6.764,3.06c-5.1-7.545-10.351-14.76-15.48-22.157,1.507-.645,2.867-1.218,4.219-1.808a13.9,13.9,0,0,0,6.845-6.238,9.032,9.032,0,0,0-1.47-10.725,11.345,11.345,0,0,0-7.83-3.533c-3.39-.173-6.786-.211-10.18-.3h0c-.07,0-.143.071-.271.137" transform="translate(-712.659 -409.687)" fill="#333"/>
    </clipPath>
    <clipPath id="clip-path-2">
      <path id="Path_206" data-name="Path 206" d="M150.763,413.8c-1.138,1.59-2.245,3.215-3.523,4.688-3.873,4.463-7.821,8.861-11.747,13.277a4.491,4.491,0,0,1-.709.494c.084-6.43.166-12.658.248-18.91h-4.986v44.794c1.63-1.211,3.139-2.295,4.591-3.449.226-.18.27-.686.269-1.04-.021-5.738-.065-11.477-.094-17.215a8.192,8.192,0,0,1,.159-1.053,7.474,7.474,0,0,1,1.245.824,43.047,43.047,0,0,1,3.629,3.921,52.32,52.32,0,0,1,8.584,16.834c.067.23.178.448.325.812l6.5-4.079c-6.123-6.326-10.707-13.659-15.89-20.582.213-.23.34-.395.493-.53A80.625,80.625,0,0,0,154.448,414.8c.348-.556.6-1.176.908-1.806a18.355,18.355,0,0,1-2.807-.031,2.293,2.293,0,0,0-.374-.033,1.654,1.654,0,0,0-1.412.867" transform="translate(-130.046 -412.931)" fill="#333"/>
    </clipPath>
    <clipPath id="clip-path-3">
      <path id="Path_207" data-name="Path 207" d="M517.976,409.658c-.244.012-.508.344-.693.589a2.7,2.7,0,0,0-.275.71q-7.791,21.39-15.58,42.781c-.357.981-.677,1.974-1.015,2.962,1.255-.726,2.3-1.636,3.429-2.437a4.747,4.747,0,0,0,1.8-2.669c1.836-5.971,3.661-11.946,5.626-17.875,1.631-4.922,3.449-9.782,5.193-14.666a6.016,6.016,0,0,1,.49-.84c.219.518.385.856.509,1.209.659,1.886,1.367,3.757,1.951,5.666,2.583,8.456,5.114,16.928,7.7,25.383a13.77,13.77,0,0,1,.567,4.907,9.81,9.81,0,0,0,.074,1.053l5.46-4.022c-.129-.392-.195-.636-.288-.869-2.611-6.561-4.768-13.276-6.927-19.995-2.12-6.6-4.42-13.132-6.647-19.692a11.128,11.128,0,0,0-.658-1.657,1.055,1.055,0,0,0-.7-.539h-.013" transform="translate(-500.414 -409.658)" fill="#333"/>
    </clipPath>
    <clipPath id="clip-path-4">
      <path id="Path_208" data-name="Path 208" d="M320.776,406.55c-.767.026-.742.737-.916,1.213-1.429,3.915-2.814,7.846-4.243,11.761q-5.774,15.819-11.568,31.63c-.3.808-.535,1.636-.8,2.454,1.182-.678,2.135-1.528,3.177-2.246a5.5,5.5,0,0,0,2.115-3.191c1.8-5.9,3.619-11.785,5.56-17.634,1.594-4.8,3.366-9.544,5.065-14.311.111-.313.264-.61.521-1.2.267.608.437.943.563,1.293.458,1.281.946,2.554,1.344,3.854,2.8,9.149,5.571,18.308,8.382,27.453a13.347,13.347,0,0,1,.511,4.662c-.014.271,0,.543,0,1.112l5.506-4.067c-.146-.45-.233-.775-.357-1.087-2.555-6.448-4.663-13.048-6.8-19.642-2.269-7-4.714-13.936-7.1-20.894-.16-.465-.166-1.164-.91-1.164h-.042" transform="translate(-303.248 -406.549)" fill="#333"/>
    </clipPath>
    <clipPath id="clip-path-5">
      <path id="Path_209" data-name="Path 209" d="M.688,413.809c.206,15.024.077,30.009-.688,45.2.446-.287.733-.452,1-.647,1.234-.9,2.433-1.86,3.7-2.709a1.91,1.91,0,0,0,.887-1.923c-.183-3.862-.4-7.727-.432-11.592-.075-8.841.02-17.68.634-26.505.043-.619.005-1.243.005-1.827Z" transform="translate(0 -413.809)" fill="#333"/>
    </clipPath>
    <clipPath id="clip-path-6">
      <path id="Path_210" data-name="Path 210" d="M310.511,43.638q-3.335-3.572-6.664-7.15c-1.872-2.012-3.767-4-5.6-6.045a31.106,31.106,0,0,1-6.5-11.1,12.95,12.95,0,0,1,1.334-11.15,9.3,9.3,0,0,1,7.935-4.543c.117-.006.236,0,.353-.007a9.29,9.29,0,0,1,6.866,2.728,8.414,8.414,0,0,1,2.546,4.743,21.167,21.167,0,0,1,.392,4.156q.058,9.245.08,18.49.017,4.8.015,9.6c0,.247-.034.493-.052.74l-.164.056c-.18-.17-.37-.332-.539-.514m-13.9-42.6a13.128,13.128,0,0,0-8.086,8.4,20.352,20.352,0,0,0-.867,5.155,13.823,13.823,0,0,0,.429,4.73c.26.923.6,1.826.948,2.721a32.376,32.376,0,0,0,6.917,10.989q6.936,7.186,14.111,14.131c.6.579.6.581.088,1.237L284.166,81.63q-1.56,2-3.117,3.994a1.123,1.123,0,0,0-.366.756c.373-.278.675-.484.957-.716a8.953,8.953,0,0,1,3.619-1.9c.42-.1.834-.225,1.252-.332A5.848,5.848,0,0,0,289.8,81.4c1.638-2.059,3.368-4.044,4.991-6.114,3.806-4.853,7.346-9.9,10.943-14.912,1.615-2.249,3.257-4.478,4.892-6.713.14-.192.317-.357.476-.535l.127.053c.021.227.055.453.063.681.144,4.416.222,8.835.443,13.247.274,5.471.654,10.937,1.014,16.4.1,1.567.295,3.127.45,4.69a3.952,3.952,0,0,0,.1.449l.15-.019c.036-.445.088-.889.105-1.335q.371-9.831.735-19.663.273-7.33.547-14.659c.008-.2.047-.4.09-.752.257.255.415.391.55.547,4.224,4.862,8.431,9.739,12.673,14.586q5.335,6.1,10.735,12.131a17.858,17.858,0,0,0,3.668,3.213c1.041.668,2.11,1.291,3.169,1.929.157.095.332.161.6.291a2.84,2.84,0,0,0-.776-1.155Q330.574,66.179,315.593,48.6c-.1-.119-.2-.246-.3-.36a.494.494,0,0,1-.04-.734c.075-.091.139-.19.21-.285l7.436-9.961q7.983-10.692,15.963-21.386a39.934,39.934,0,0,0,4.259-7.318c.093-.2.158-.422.236-.634l-.132-.081c-.215.239-.439.47-.644.717-3.327,4.027-6.625,8.078-9.983,12.078-4.814,5.733-9.422,11.624-13.719,17.755Q317.05,41,315.226,43.609c-.125.177-.207.427-.563.447-.016-.268-.049-.516-.043-.763.09-3.769.123-7.541.294-11.306a136.5,136.5,0,0,0-.189-16.189,37.866,37.866,0,0,0-1.326-8,9.619,9.619,0,0,0-2.574-4.429c-.372-.349-.743-.7-1.118-1.046a7.473,7.473,0,0,0-3.7-1.969A20.14,20.14,0,0,0,302.337,0a15.781,15.781,0,0,0-5.724,1.038" transform="translate(-280.683)" fill="#333"/>
    </clipPath>
  </defs>
  <g id="Group_285" data-name="Group 285" transform="translate(194.99 112.094)">
    <g id="Group_284" data-name="Group 284" clip-path="url(#clip-path)">
      <rect id="Rectangle_346" data-name="Rectangle 346" width="33.456" height="49.882" transform="translate(-9.548 2.087) rotate(-12.331)" fill="#333"/>
    </g>
  </g>
  <g id="Group_287" data-name="Group 287" transform="translate(35.582 112.982)">
    <g id="Group_286" data-name="Group 286" clip-path="url(#clip-path-2)">
      <rect id="Rectangle_347" data-name="Rectangle 347" width="34.382" height="49.573" transform="translate(-9.433 2.062) rotate(-12.331)" fill="#333"/>
    </g>
  </g>
  <g id="Group_289" data-name="Group 289" transform="translate(136.918 112.086)">
    <g id="Group_288" data-name="Group 288" clip-path="url(#clip-path-3)">
      <rect id="Rectangle_348" data-name="Rectangle 348" width="42.086" height="52.961" transform="translate(-9.815 2.146) rotate(-12.331)" fill="#333"/>
    </g>
  </g>
  <g id="Group_291" data-name="Group 291" transform="translate(82.971 111.236)">
    <g id="Group_290" data-name="Group 290" clip-path="url(#clip-path-4)">
      <rect id="Rectangle_349" data-name="Rectangle 349" width="42.036" height="52.965" transform="translate(-9.818 2.146) rotate(-12.331)" fill="#333"/>
    </g>
  </g>
  <g id="Group_293" data-name="Group 293" transform="translate(0 113.222)">
    <g id="Group_292" data-name="Group 292" clip-path="url(#clip-path-5)">
      <rect id="Rectangle_350" data-name="Rectangle 350" width="15.352" height="45.406" transform="matrix(0.977, -0.214, 0.214, 0.977, -9.431, 2.062)" fill="#333"/>
    </g>
  </g>
  <g id="Group_295" data-name="Group 295" transform="translate(76.797)">
    <g id="Group_294" data-name="Group 294" clip-path="url(#clip-path-6)">
      <rect id="Rectangle_351" data-name="Rectangle 351" width="108.875" height="109.299" transform="translate(-44.309 43.168) rotate(-44.253)" fill="#333"/>
    </g>
  </g>
</svg>
