<svg width="31" height="31" viewBox="0 0 31 31" fill="none" xmlns="http://www.w3.org/2000/svg">
<g clip-path="url(#clip0_22_30402)">
<path d="M15.3484 6.70425L15.5007 6.88306L15.6529 6.70425C17.0241 5.09404 19.1262 4.075 21.3132 4.075C25.181 4.075 28.2173 7.11129 28.2173 10.9792C28.2173 13.3547 27.1508 15.5259 25.2352 17.8679C23.3183 20.2114 20.5723 22.7015 17.2448 25.7189L17.2392 25.7239L17.2389 25.7242L15.5001 27.3071L13.7622 25.737L13.7618 25.7366L13.7217 25.7001C10.4098 22.6905 7.67632 20.2065 5.76618 17.8696C3.85055 15.5259 2.78398 13.3547 2.78398 10.9792C2.78398 7.11129 5.82027 4.075 9.68815 4.075C11.8751 4.075 13.9772 5.09404 15.3484 6.70425ZM7.81182 16.912C9.60376 19.0059 12.1645 21.3265 15.2336 24.1053L15.3592 24.231L15.5007 24.3724L15.6421 24.231L15.7677 24.1054C18.8368 21.3265 21.3975 19.0059 23.1895 16.912C24.9802 14.8196 26.034 12.9194 26.034 10.9792C26.034 8.28538 24.0069 6.25833 21.3132 6.25833C19.2955 6.25833 17.3254 7.52153 16.5793 9.30667H14.4341C13.6762 7.52217 11.7065 6.25833 9.68815 6.25833C6.99436 6.25833 4.96732 8.28538 4.96732 10.9792C4.96732 12.9194 6.02112 14.8196 7.81182 16.912Z" fill="#79AF27" stroke="white" stroke-width="0.4"/>
</g>
<defs>
<clipPath id="clip0_22_30402">
<rect width="31" height="31" fill="white"/>
</clipPath>
</defs>
</svg>
