<svg xmlns="http://www.w3.org/2000/svg" width="44.049" height="44.049" viewBox="0 0 44.049 44.049">
  <path id="Icon_ionic-md-call" data-name="Icon ionic-md-call" d="M46.1,35.089a28.721,28.721,0,0,1-8.687-1.345,2.289,2.289,0,0,0-2.447.612l-5.384,5.383A36.8,36.8,0,0,1,13.432,23.587L18.816,18.2a2.55,2.55,0,0,0,.612-2.447,26.614,26.614,0,0,1-1.469-8.81A2.455,2.455,0,0,0,15.512,4.5H6.947A2.455,2.455,0,0,0,4.5,6.947a41.567,41.567,0,0,0,41.6,41.6A2.455,2.455,0,0,0,48.549,46.1V37.536A2.455,2.455,0,0,0,46.1,35.089Z" transform="translate(-4.5 -4.5)" fill="#fff"/>
</svg>
