<svg xmlns="http://www.w3.org/2000/svg" width="16.627" height="15.234" viewBox="0 0 16.627 15.234">
  <path id="favorite_FILL0_wght400_GRAD0_opsz48" d="M88.313-838.766l-.852-.769q-2.2-2.018-3.635-3.482a25.488,25.488,0,0,1-2.289-2.617,8.649,8.649,0,0,1-1.2-2.089A5.457,5.457,0,0,1,80-849.615a4.245,4.245,0,0,1,1.257-3.13A4.224,4.224,0,0,1,84.365-854a4.433,4.433,0,0,1,2.193.561,5.325,5.325,0,0,1,1.756,1.621,6.061,6.061,0,0,1,1.85-1.652,4.334,4.334,0,0,1,2.1-.53,4.224,4.224,0,0,1,3.107,1.256,4.245,4.245,0,0,1,1.257,3.13,5.457,5.457,0,0,1-.343,1.891,8.649,8.649,0,0,1-1.2,2.089,25.486,25.486,0,0,1-2.289,2.617q-1.436,1.464-3.635,3.482Zm0-1.642q2.1-1.933,3.463-3.315a27.633,27.633,0,0,0,2.159-2.421A7.991,7.991,0,0,0,95.058-848a4.362,4.362,0,0,0,.322-1.615,3.077,3.077,0,0,0-.873-2.258,3.014,3.014,0,0,0-2.24-.883,3.327,3.327,0,0,0-1.982.655,4.659,4.659,0,0,0-1.473,1.839H87.794a4.608,4.608,0,0,0-1.452-1.829,3.292,3.292,0,0,0-1.982-.665,3.014,3.014,0,0,0-2.24.883,3.082,3.082,0,0,0-.873,2.262,4.425,4.425,0,0,0,.322,1.625,8.094,8.094,0,0,0,1.122,1.87,24.947,24.947,0,0,0,2.172,2.421Q86.235-842.32,88.313-840.408ZM88.313-846.58Z" transform="translate(-80 854)" fill="#979797"/>
</svg>
