<svg xmlns="http://www.w3.org/2000/svg" width="16.566" height="14.496" viewBox="0 0 16.566 14.496">
  <g id="Icon_awesome-heart" data-name="Icon awesome-heart" transform="translate(0.001 -2.248)" fill="none">
    <path d="M14.957,3.239a4.425,4.425,0,0,0-6.038.44l-.637.657-.637-.657a4.424,4.424,0,0,0-6.038-.44,4.646,4.646,0,0,0-.32,6.727L7.548,16.43a1.014,1.014,0,0,0,1.466,0l6.261-6.465a4.643,4.643,0,0,0-.317-6.727Z" stroke="none"/>
    <path d="M 4.321136474609375 3.247663497924805 C 3.547756195068359 3.247663497924805 2.83371639251709 3.507793426513672 2.256795883178711 3.999443054199219 C 1.496886253356934 4.648033142089844 1.051746368408203 5.562613487243652 1.003376007080078 6.574703216552734 C 0.9553661346435547 7.57939338684082 1.320825576782227 8.561893463134766 2.00562572479248 9.269843101501465 L 8.266225814819336 15.73427391052246 C 8.274875640869141 15.74320316314697 8.278816223144531 15.74320316314697 8.280925750732422 15.74320316314697 C 8.283036231994629 15.74320316314697 8.286975860595703 15.74320316314697 8.295435905456543 15.73447322845459 L 14.55642604827881 9.269643783569336 C 15.2426061630249 8.5615234375 15.60887622833252 7.579303741455078 15.5613260269165 6.574823379516602 C 15.5134162902832 5.562823295593262 15.06841564178467 4.64820384979248 14.30887603759766 3.999943733215332 C 13.73136615753174 3.507793426513672 13.01769638061523 3.247663497924805 12.24502563476562 3.247663497924805 C 11.2824764251709 3.247663497924805 10.33226585388184 3.658493041992188 9.63758659362793 4.375273704528809 L 8.282546043395996 5.77159309387207 L 6.926365852355957 4.374093055725098 C 6.233956336975098 3.658233642578125 5.284385681152344 3.247663497924805 4.321136474609375 3.247663497924805 M 4.321135520935059 2.247665405273438 C 5.527322769165039 2.247665405273438 6.743103981018066 2.746267318725586 7.645146369934082 3.678853034973145 L 8.282546043395996 4.335673332214355 L 8.919946670532227 3.678853034973145 C 10.54743576049805 1.999605178833008 13.18440532684326 1.727813720703125 14.95748615264893 3.238823890686035 C 16.98941612243652 4.973073959350586 17.0961856842041 8.085673332214355 15.27457618713379 9.965533256530762 L 9.013775825500488 16.4301643371582 C 8.609335899353027 16.84755325317383 7.952515602111816 16.84755325317383 7.548075675964355 16.4301643371582 L 1.287285804748535 9.965533256530762 C -0.5310935974121094 8.085673332214355 -0.4243240356445312 4.973073959350586 1.607605934143066 3.238823890686035 C 2.395990371704102 2.566967010498047 3.355417251586914 2.247665405273438 4.321135520935059 2.247665405273438 Z" stroke="none" fill="#e3e3e3"/>
  </g>
</svg>
