<svg xmlns="http://www.w3.org/2000/svg" width="19.102" height="15.52" viewBox="0 0 19.102 15.52">
  <path id="Icon_awesome-list-ul" data-name="Icon awesome-list-ul" d="M1.791,3.375A1.791,1.791,0,1,0,3.582,5.166,1.791,1.791,0,0,0,1.791,3.375Zm0,5.969a1.791,1.791,0,1,0,1.791,1.791A1.791,1.791,0,0,0,1.791,9.344Zm0,5.969A1.791,1.791,0,1,0,3.582,17.1a1.791,1.791,0,0,0-1.791-1.791Zm16.714.6H6.566a.6.6,0,0,0-.6.6V17.7a.6.6,0,0,0,.6.6H18.5a.6.6,0,0,0,.6-.6V16.508A.6.6,0,0,0,18.5,15.911Zm0-11.939H6.566a.6.6,0,0,0-.6.6V5.763a.6.6,0,0,0,.6.6H18.5a.6.6,0,0,0,.6-.6V4.569A.6.6,0,0,0,18.5,3.972Zm0,5.969H6.566a.6.6,0,0,0-.6.6v1.194a.6.6,0,0,0,.6.6H18.5a.6.6,0,0,0,.6-.6V10.538A.6.6,0,0,0,18.5,9.941Z" transform="translate(0 -3.375)" fill="#979797"/>
</svg>
