<svg xmlns="http://www.w3.org/2000/svg" width="14.476" height="19" viewBox="0 0 14.476 19">
  <path id="lock_FILL0_wght400_GRAD0_opsz48_1_" data-name="lock_FILL0_wght400_GRAD0_opsz48 (1)" d="M161.357-901a1.307,1.307,0,0,1-.958-.4,1.307,1.307,0,0,1-.4-.958v-9.817a1.307,1.307,0,0,1,.4-.958,1.306,1.306,0,0,1,.958-.4h1.583V-915.7a4.141,4.141,0,0,1,1.258-3.041A4.146,4.146,0,0,1,167.241-920a4.138,4.138,0,0,1,3.04,1.257,4.145,4.145,0,0,1,1.255,3.041v2.172h1.583a1.306,1.306,0,0,1,.958.4,1.307,1.307,0,0,1,.4.958v9.817a1.307,1.307,0,0,1-.4.958,1.307,1.307,0,0,1-.958.4Zm0-1.357h11.762v-9.817H161.357Zm5.885-3.167a1.692,1.692,0,0,0,1.229-.5,1.616,1.616,0,0,0,.509-1.2,1.774,1.774,0,0,0-.513-1.233,1.62,1.62,0,0,0-1.233-.554,1.609,1.609,0,0,0-1.229.554,1.794,1.794,0,0,0-.509,1.244,1.6,1.6,0,0,0,.513,1.188A1.706,1.706,0,0,0,167.242-905.524Zm-2.944-8.007h5.881V-915.7a2.837,2.837,0,0,0-.857-2.083,2.832,2.832,0,0,0-2.081-.858,2.841,2.841,0,0,0-2.084.858,2.833,2.833,0,0,0-.86,2.083Zm-2.94,11.174v0Z" transform="translate(-160 920)" fill="#979797"/>
</svg>
