<svg xmlns="http://www.w3.org/2000/svg" width="14.864" height="14.422" viewBox="0 0 14.864 14.422">
  <path id="person_FILL0_wght400_GRAD0_opsz48_1_" data-name="person_FILL0_wght400_GRAD0_opsz48 (1)" d="M167.432-774.033a3.4,3.4,0,0,1-2.508-.975,3.4,3.4,0,0,1-.975-2.508,3.4,3.4,0,0,1,.975-2.508,3.4,3.4,0,0,1,2.508-.976,3.4,3.4,0,0,1,2.508.976,3.4,3.4,0,0,1,.975,2.508,3.4,3.4,0,0,1-.975,2.508A3.4,3.4,0,0,1,167.432-774.033ZM160-766.577v-2.183a2.555,2.555,0,0,1,.441-1.51,2.833,2.833,0,0,1,1.138-.952,17.463,17.463,0,0,1,2.984-1.045,12.061,12.061,0,0,1,2.868-.348,11.551,11.551,0,0,1,2.857.36,19.43,19.43,0,0,1,2.971,1.038,2.805,2.805,0,0,1,1.166.951,2.549,2.549,0,0,1,.439,1.506v2.183Zm1.393-1.393H173.47v-.79a1.273,1.273,0,0,0-.221-.708,1.4,1.4,0,0,0-.546-.5,12.334,12.334,0,0,0-2.717-.987,12.017,12.017,0,0,0-2.555-.267,12.344,12.344,0,0,0-2.578.267,11.8,11.8,0,0,0-2.717.987,1.32,1.32,0,0,0-.534.5,1.323,1.323,0,0,0-.209.708Zm6.038-7.455a2.03,2.03,0,0,0,1.5-.592,2.03,2.03,0,0,0,.592-1.5,2.03,2.03,0,0,0-.592-1.5,2.03,2.03,0,0,0-1.5-.592,2.03,2.03,0,0,0-1.5.592,2.03,2.03,0,0,0-.592,1.5,2.03,2.03,0,0,0,.592,1.5A2.03,2.03,0,0,0,167.432-775.426ZM167.432-777.516ZM167.432-767.971Z" transform="translate(-160 781)" fill="#979797"/>
</svg>
